{
 "asset": {
  "version": "2.0"
 },
 "scene": 0,
 "scenes": [
  {
   "nodes": [
    0,
    1
   ]
  }
 ],
 "nodes": [
  {
   "name": "SkinnedQuad",
   "mesh": 0,
   "skin": 0
  },
  {
   "name": "Root",
   "children": [
    2
   ]
  },
  {
   "name": "Child",
   "translation": [
    0.0,
    2.0,
    0.0
   ]
  }
 ],
 "meshes": [
  {
   "primitives": [
    {
     "attributes": {
      "POSITION": 0,
      "JOINTS_0": 1,
      "WEIGHTS_0": 2
     },
     "indices": 3
    }
   ]
  }
 ],
 "skins": [
  {
   "joints": [
    1,
    2
   ],
   "inverseBindMatrices": 4
  }
 ],
 "animations": [
  {
   "name": "Spin",
   "samplers": [
    {
     "input": 5,
     "output": 6,
     "interpolation": "LINEAR"
    }
   ],
   "channels": [
    {
     "sampler": 0,
     "target": {
      "node": 1,
      "path": "rotation"
     }
    }
   ]
  }
 ],
 "buffers": [
  {
   "uri": "SkinProbe.bin",
   "byteLength": 308
  }
 ],
 "bufferViews": [
  {
   "buffer": 0,
   "byteOffset": 0,
   "byteLength": 48,
   "target": 34962
  },
  {
   "buffer": 0,
   "byteOffset": 48,
   "byteLength": 16,
   "target": 34962
  },
  {
   "buffer": 0,
   "byteOffset": 64,
   "byteLength": 64,
   "target": 34962
  },
  {
   "buffer": 0,
   "byteOffset": 128,
   "byteLength": 12,
   "target": 34963
  },
  {
   "buffer": 0,
   "byteOffset": 140,
   "byteLength": 128
  },
  {
   "buffer": 0,
   "byteOffset": 268,
   "byteLength": 8
  },
  {
   "buffer": 0,
   "byteOffset": 276,
   "byteLength": 32
  }
 ],
 "accessors": [
  {
   "bufferView": 0,
   "componentType": 5126,
   "count": 4,
   "type": "VEC3",
   "min": [
    -1.0,
    0.0,
    0.0
   ],
   "max": [
    1.0,
    4.0,
    0.0
   ]
  },
  {
   "bufferView": 1,
   "componentType": 5121,
   "count": 4,
   "type": "VEC4"
  },
  {
   "bufferView": 2,
   "componentType": 5126,
   "count": 4,
   "type": "VEC4"
  },
  {
   "bufferView": 3,
   "componentType": 5123,
   "count": 6,
   "type": "SCALAR"
  },
  {
   "bufferView": 4,
   "componentType": 5126,
   "count": 2,
   "type": "MAT4"
  },
  {
   "bufferView": 5,
   "componentType": 5126,
   "count": 2,
   "type": "SCALAR",
   "min": [
    0.0
   ],
   "max": [
    1.0
   ]
  },
  {
   "bufferView": 6,
   "componentType": 5126,
   "count": 2,
   "type": "VEC4"
  }
 ]
}